<svg xmlns="http://www.w3.org/2000/svg" viewBox="0 0 500 500" width="500" height="500" opacity="1"><rect x="160.5" y="0.5" width="31.0" height="31.0" fill="rgb(102,88,69)"/><rect x="192.5" y="0.5" width="31.0" height="31.0" fill="rgb(98,87,67)"/><rect x="224.5" y="0.5" width="31.0" height="31.0" fill="rgb(94,84,62)"/><rect x="256.5" y="0.5" width="31.0" height="31.0" fill="rgb(93,83,62)"/><rect x="288.5" y="0.5" width="31.0" height="31.0" fill="rgb(102,89,66)"/><rect x="320.5" y="0.5" width="31.0" height="31.0" fill="rgb(105,93,70)"/><rect x="96.5" y="32.5" width="31.0" height="31.0" fill="rgb(102,94,77)"/><rect x="128.5" y="32.5" width="31.0" height="31.0" fill="rgb(97,84,65)"/><rect x="160.5" y="32.5" width="31.0" height="31.0" fill="rgb(95,83,59)"/><rect x="192.5" y="32.5" width="31.0" height="31.0" fill="rgb(95,82,63)"/><rect x="224.5" y="32.5" width="31.0" height="31.0" fill="rgb(103,91,70)"/><rect x="256.5" y="32.5" width="31.0" height="31.0" fill="rgb(97,82,61)"/><rect x="288.5" y="32.5" width="31.0" height="31.0" fill="rgb(111,96,76)"/><rect x="320.5" y="32.5" width="31.0" height="31.0" fill="rgb(103,91,62)"/><rect x="352.5" y="32.5" width="31.0" height="31.0" fill="rgb(104,89,65)"/><rect x="384.5" y="32.5" width="31.0" height="31.0" fill="rgb(103,86,64)"/><rect x="64.5" y="64.5" width="31.0" height="31.0" fill="rgb(13,12,14)"/><rect x="96.5" y="64.5" width="31.0" height="31.0" fill="rgb(102,91,75)"/><rect x="128.5" y="64.5" width="31.0" height="31.0" fill="rgb(98,85,64)"/><rect x="160.5" y="64.5" width="31.0" height="31.0" fill="rgb(99,84,63)"/><rect x="192.5" y="64.5" width="31.0" height="31.0" fill="rgb(91,73,53)"/><rect x="224.5" y="64.5" width="31.0" height="31.0" fill="rgb(90,78,55)"/><rect x="256.5" y="64.5" width="31.0" height="31.0" fill="rgb(99,84,62)"/><rect x="288.5" y="64.5" width="31.0" height="31.0" fill="rgb(106,94,67)"/><rect x="320.5" y="64.5" width="31.0" height="31.0" fill="rgb(106,92,65)"/><rect x="352.5" y="64.5" width="31.0" height="31.0" fill="rgb(106,92,65)"/><rect x="384.5" y="64.5" width="31.0" height="31.0" fill="rgb(97,86,60)"/><rect x="416.5" y="64.5" width="31.0" height="31.0" fill="rgb(95,84,59)"/><rect x="32.5" y="96.5" width="31.0" height="31.0" fill="rgb(113,100,74)"/><rect x="64.5" y="96.5" width="31.0" height="31.0" fill="rgb(14,13,12)"/><rect x="96.5" y="96.5" width="31.0" height="31.0" fill="rgb(95,83,69)"/><rect x="128.5" y="96.5" width="31.0" height="31.0" fill="rgb(102,89,74)"/><rect x="160.5" y="96.5" width="31.0" height="31.0" fill="rgb(94,80,57)"/><rect x="192.5" y="96.5" width="31.0" height="31.0" fill="rgb(84,72,49)"/><rect x="224.5" y="96.5" width="31.0" height="31.0" fill="rgb(99,86,65)"/><rect x="256.5" y="96.5" width="31.0" height="31.0" fill="rgb(100,86,59)"/><rect x="288.5" y="96.5" width="31.0" height="31.0" fill="rgb(105,91,66)"/><rect x="320.5" y="96.5" width="31.0" height="31.0" fill="rgb(106,91,67)"/><rect x="352.5" y="96.5" width="31.0" height="31.0" fill="rgb(100,89,59)"/><rect x="384.5" y="96.5" width="31.0" height="31.0" fill="rgb(14,10,3)"/><rect x="416.5" y="96.5" width="31.0" height="31.0" fill="rgb(71,63,42)"/><rect x="448.5" y="96.5" width="31.0" height="31.0" fill="rgb(71,66,44)"/><rect x="32.5" y="128.5" width="31.0" height="31.0" fill="rgb(109,96,81)"/><rect x="64.5" y="128.5" width="31.0" height="31.0" fill="rgb(3,9,18)"/><rect x="96.5" y="128.5" width="31.0" height="31.0" fill="rgb(14,10,14)"/><rect x="128.5" y="128.5" width="31.0" height="31.0" fill="rgb(11,8,17)"/><rect x="160.5" y="128.5" width="31.0" height="31.0" fill="rgb(7,8,14)"/><rect x="192.5" y="128.5" width="31.0" height="31.0" fill="rgb(84,68,51)"/><rect x="224.5" y="128.5" width="31.0" height="31.0" fill="rgb(95,78,56)"/><rect x="256.5" y="128.5" width="31.0" height="31.0" fill="rgb(94,82,59)"/><rect x="288.5" y="128.5" width="31.0" height="31.0" fill="rgb(108,91,65)"/><rect x="320.5" y="128.5" width="31.0" height="31.0" fill="rgb(96,83,62)"/><rect x="352.5" y="128.5" width="31.0" height="31.0" fill="rgb(4,2,0)"/><rect x="384.5" y="128.5" width="31.0" height="31.0" fill="rgb(6,4,3)"/><rect x="416.5" y="128.5" width="31.0" height="31.0" fill="rgb(3,3,3)"/><rect x="448.5" y="128.5" width="31.0" height="31.0" fill="rgb(15,11,8)"/><rect x="0.5" y="160.5" width="31.0" height="31.0" fill="rgb(28,162,249)"/><rect x="32.5" y="160.5" width="31.0" height="31.0" fill="rgb(15,103,230)"/><rect x="64.5" y="160.5" width="31.0" height="31.0" fill="rgb(20,125,247)"/><rect x="96.5" y="160.5" width="31.0" height="31.0" fill="rgb(26,119,239)"/><rect x="128.5" y="160.5" width="31.0" height="31.0" fill="rgb(28,139,252)"/><rect x="160.5" y="160.5" width="31.0" height="31.0" fill="rgb(0,19,68)"/><rect x="192.5" y="160.5" width="31.0" height="31.0" fill="rgb(75,61,41)"/><rect x="224.5" y="160.5" width="31.0" height="31.0" fill="rgb(88,74,54)"/><rect x="256.5" y="160.5" width="31.0" height="31.0" fill="rgb(50,43,30)"/><rect x="288.5" y="160.5" width="31.0" height="31.0" fill="rgb(3,3,2)"/><rect x="320.5" y="160.5" width="31.0" height="31.0" fill="rgb(10,8,6)"/><rect x="352.5" y="160.5" width="31.0" height="31.0" fill="rgb(5,3,1)"/><rect x="384.5" y="160.5" width="31.0" height="31.0" fill="rgb(7,5,4)"/><rect x="416.5" y="160.5" width="31.0" height="31.0" fill="rgb(1,1,1)"/><rect x="448.5" y="160.5" width="31.0" height="31.0" fill="rgb(2,2,2)"/><rect x="480.5" y="160.5" width="31.0" height="31.0" fill="rgb(4,4,4)"/><rect x="0.5" y="192.5" width="31.0" height="31.0" fill="rgb(13,80,203)"/><rect x="32.5" y="192.5" width="31.0" height="31.0" fill="rgb(12,69,184)"/><rect x="64.5" y="192.5" width="31.0" height="31.0" fill="rgb(114,172,242)"/><rect x="96.5" y="192.5" width="31.0" height="31.0" fill="rgb(57,134,227)"/><rect x="128.5" y="192.5" width="31.0" height="31.0" fill="rgb(41,95,200)"/><rect x="160.5" y="192.5" width="31.0" height="31.0" fill="rgb(0,10,24)"/><rect x="192.5" y="192.5" width="31.0" height="31.0" fill="rgb(77,63,47)"/><rect x="224.5" y="192.5" width="31.0" height="31.0" fill="rgb(85,70,48)"/><rect x="256.5" y="192.5" width="31.0" height="31.0" fill="rgb(11,8,2)"/><rect x="288.5" y="192.5" width="31.0" height="31.0" fill="rgb(7,7,7)"/><rect x="320.5" y="192.5" width="31.0" height="31.0" fill="rgb(2,2,2)"/><rect x="352.5" y="192.5" width="31.0" height="31.0" fill="rgb(2,2,2)"/><rect x="384.5" y="192.5" width="31.0" height="31.0" fill="rgb(3,3,3)"/><rect x="416.5" y="192.5" width="31.0" height="31.0" fill="rgb(5,5,3)"/><rect x="448.5" y="192.5" width="31.0" height="31.0" fill="rgb(1,1,1)"/><rect x="480.5" y="192.5" width="31.0" height="31.0" fill="rgb(2,2,2)"/><rect x="0.5" y="224.5" width="31.0" height="31.0" fill="rgb(64,162,237)"/><rect x="32.5" y="224.5" width="31.0" height="31.0" fill="rgb(16,104,222)"/><rect x="64.5" y="224.5" width="31.0" height="31.0" fill="rgb(25,106,218)"/><rect x="96.5" y="224.5" width="31.0" height="31.0" fill="rgb(121,175,241)"/><rect x="128.5" y="224.5" width="31.0" height="31.0" fill="rgb(53,132,237)"/><rect x="160.5" y="224.5" width="31.0" height="31.0" fill="rgb(5,7,18)"/><rect x="192.5" y="224.5" width="31.0" height="31.0" fill="rgb(81,68,50)"/><rect x="224.5" y="224.5" width="31.0" height="31.0" fill="rgb(76,63,45)"/><rect x="256.5" y="224.5" width="31.0" height="31.0" fill="rgb(79,64,45)"/><rect x="288.5" y="224.5" width="31.0" height="31.0" fill="rgb(88,70,50)"/><rect x="320.5" y="224.5" width="31.0" height="31.0" fill="rgb(11,9,7)"/><rect x="352.5" y="224.5" width="31.0" height="31.0" fill="rgb(2,2,2)"/><rect x="384.5" y="224.5" width="31.0" height="31.0" fill="rgb(1,1,1)"/><rect x="416.5" y="224.5" width="31.0" height="31.0" fill="rgb(1,1,1)"/><rect x="448.5" y="224.5" width="31.0" height="31.0" fill="rgb(1,1,1)"/><rect x="480.5" y="224.5" width="31.0" height="31.0" fill="rgb(32,27,15)"/><rect x="0.5" y="256.5" width="31.0" height="31.0" fill="rgb(41,87,203)"/><rect x="32.5" y="256.5" width="31.0" height="31.0" fill="rgb(10,64,178)"/><rect x="64.5" y="256.5" width="31.0" height="31.0" fill="rgb(84,135,231)"/><rect x="96.5" y="256.5" width="31.0" height="31.0" fill="rgb(2,11,28)"/><rect x="128.5" y="256.5" width="31.0" height="31.0" fill="rgb(7,7,18)"/><rect x="160.5" y="256.5" width="31.0" height="31.0" fill="rgb(26,18,22)"/><rect x="192.5" y="256.5" width="31.0" height="31.0" fill="rgb(23,17,11)"/><rect x="224.5" y="256.5" width="31.0" height="31.0" fill="rgb(28,18,10)"/><rect x="256.5" y="256.5" width="31.0" height="31.0" fill="rgb(24,15,15)"/><rect x="288.5" y="256.5" width="31.0" height="31.0" fill="rgb(19,17,15)"/><rect x="320.5" y="256.5" width="31.0" height="31.0" fill="rgb(7,5,4)"/><rect x="352.5" y="256.5" width="31.0" height="31.0" fill="rgb(47,30,23)"/><rect x="384.5" y="256.5" width="31.0" height="31.0" fill="rgb(6,4,3)"/><rect x="416.5" y="256.5" width="31.0" height="31.0" fill="rgb(3,3,3)"/><rect x="448.5" y="256.5" width="31.0" height="31.0" fill="rgb(2,2,2)"/><rect x="480.5" y="256.5" width="31.0" height="31.0" fill="rgb(14,12,8)"/><rect x="0.5" y="288.5" width="31.0" height="31.0" fill="rgb(54,44,38)"/><rect x="32.5" y="288.5" width="31.0" height="31.0" fill="rgb(6,5,8)"/><rect x="64.5" y="288.5" width="31.0" height="31.0" fill="rgb(3,5,9)"/><rect x="96.5" y="288.5" width="31.0" height="31.0" fill="rgb(11,10,13)"/><rect x="128.5" y="288.5" width="31.0" height="31.0" fill="rgb(24,15,15)"/><rect x="160.5" y="288.5" width="31.0" height="31.0" fill="rgb(24,13,12)"/><rect x="192.5" y="288.5" width="31.0" height="31.0" fill="rgb(25,16,15)"/><rect x="224.5" y="288.5" width="31.0" height="31.0" fill="rgb(8,9,12)"/><rect x="256.5" y="288.5" width="31.0" height="31.0" fill="rgb(9,4,2)"/><rect x="288.5" y="288.5" width="31.0" height="31.0" fill="rgb(27,20,15)"/><rect x="320.5" y="288.5" width="31.0" height="31.0" fill="rgb(5,3,1)"/><rect x="352.5" y="288.5" width="31.0" height="31.0" fill="rgb(98,54,31)"/><rect x="384.5" y="288.5" width="31.0" height="31.0" fill="rgb(85,47,26)"/><rect x="416.5" y="288.5" width="31.0" height="31.0" fill="rgb(74,41,29)"/><rect x="448.5" y="288.5" width="31.0" height="31.0" fill="rgb(58,33,18)"/><rect x="480.5" y="288.5" width="31.0" height="31.0" fill="rgb(14,13,9)"/><rect x="0.5" y="320.5" width="31.0" height="31.0" fill="rgb(18,10,6)"/><rect x="32.5" y="320.5" width="31.0" height="31.0" fill="rgb(14,9,8)"/><rect x="64.5" y="320.5" width="31.0" height="31.0" fill="rgb(6,10,15)"/><rect x="96.5" y="320.5" width="31.0" height="31.0" fill="rgb(10,14,24)"/><rect x="128.5" y="320.5" width="31.0" height="31.0" fill="rgb(8,13,27)"/><rect x="160.5" y="320.5" width="31.0" height="31.0" fill="rgb(12,8,11)"/><rect x="192.5" y="320.5" width="31.0" height="31.0" fill="rgb(23,13,7)"/><rect x="224.5" y="320.5" width="31.0" height="31.0" fill="rgb(5,3,1)"/><rect x="256.5" y="320.5" width="31.0" height="31.0" fill="rgb(2,2,2)"/><rect x="288.5" y="320.5" width="31.0" height="31.0" fill="rgb(3,3,3)"/><rect x="320.5" y="320.5" width="31.0" height="31.0" fill="rgb(1,1,1)"/><rect x="352.5" y="320.5" width="31.0" height="31.0" fill="rgb(88,55,38)"/><rect x="384.5" y="320.5" width="31.0" height="31.0" fill="rgb(92,56,29)"/><rect x="416.5" y="320.5" width="31.0" height="31.0" fill="rgb(21,6,0)"/><rect x="448.5" y="320.5" width="31.0" height="31.0" fill="rgb(3,3,0)"/><rect x="480.5" y="320.5" width="31.0" height="31.0" fill="rgb(3,3,3)"/><rect x="32.5" y="352.5" width="31.0" height="31.0" fill="rgb(6,8,12)"/><rect x="64.5" y="352.5" width="31.0" height="31.0" fill="rgb(4,6,8)"/><rect x="96.5" y="352.5" width="31.0" height="31.0" fill="rgb(31,30,34)"/><rect x="128.5" y="352.5" width="31.0" height="31.0" fill="rgb(9,5,5)"/><rect x="160.5" y="352.5" width="31.0" height="31.0" fill="rgb(14,12,8)"/><rect x="192.5" y="352.5" width="31.0" height="31.0" fill="rgb(19,15,12)"/><rect x="224.5" y="352.5" width="31.0" height="31.0" fill="rgb(4,1,0)"/><rect x="256.5" y="352.5" width="31.0" height="31.0" fill="rgb(2,2,2)"/><rect x="288.5" y="352.5" width="31.0" height="31.0" fill="rgb(1,1,1)"/><rect x="320.5" y="352.5" width="31.0" height="31.0" fill="rgb(1,1,1)"/><rect x="352.5" y="352.5" width="31.0" height="31.0" fill="rgb(6,5,8)"/><rect x="384.5" y="352.5" width="31.0" height="31.0" fill="rgb(3,3,3)"/><rect x="416.5" y="352.5" width="31.0" height="31.0" fill="rgb(3,3,3)"/><rect x="448.5" y="352.5" width="31.0" height="31.0" fill="rgb(3,3,3)"/><rect x="32.5" y="384.5" width="31.0" height="31.0" fill="rgb(9,7,5)"/><rect x="64.5" y="384.5" width="31.0" height="31.0" fill="rgb(16,12,9)"/><rect x="96.5" y="384.5" width="31.0" height="31.0" fill="rgb(22,16,11)"/><rect x="128.5" y="384.5" width="31.0" height="31.0" fill="rgb(29,21,12)"/><rect x="160.5" y="384.5" width="31.0" height="31.0" fill="rgb(24,16,9)"/><rect x="192.5" y="384.5" width="31.0" height="31.0" fill="rgb(21,15,10)"/><rect x="224.5" y="384.5" width="31.0" height="31.0" fill="rgb(2,2,2)"/><rect x="256.5" y="384.5" width="31.0" height="31.0" fill="rgb(2,2,2)"/><rect x="288.5" y="384.5" width="31.0" height="31.0" fill="rgb(6,5,8)"/><rect x="320.5" y="384.5" width="31.0" height="31.0" fill="rgb(3,3,3)"/><rect x="352.5" y="384.5" width="31.0" height="31.0" fill="rgb(3,3,3)"/><rect x="384.5" y="384.5" width="31.0" height="31.0" fill="rgb(3,3,3)"/><rect x="416.5" y="384.5" width="31.0" height="31.0" fill="rgb(3,3,3)"/><rect x="448.5" y="384.5" width="31.0" height="31.0" fill="rgb(3,3,3)"/><rect x="64.5" y="416.5" width="31.0" height="31.0" fill="rgb(18,15,9)"/><rect x="96.5" y="416.5" width="31.0" height="31.0" fill="rgb(4,0,0)"/><rect x="128.5" y="416.5" width="31.0" height="31.0" fill="rgb(5,3,3)"/><rect x="160.5" y="416.5" width="31.0" height="31.0" fill="rgb(3,3,3)"/><rect x="192.5" y="416.5" width="31.0" height="31.0" fill="rgb(3,3,3)"/><rect x="224.5" y="416.5" width="31.0" height="31.0" fill="rgb(5,5,5)"/><rect x="256.5" y="416.5" width="31.0" height="31.0" fill="rgb(1,1,1)"/><rect x="288.5" y="416.5" width="31.0" height="31.0" fill="rgb(5,5,5)"/><rect x="320.5" y="416.5" width="31.0" height="31.0" fill="rgb(3,3,3)"/><rect x="352.5" y="416.5" width="31.0" height="31.0" fill="rgb(3,3,3)"/><rect x="384.5" y="416.5" width="31.0" height="31.0" fill="rgb(2,2,2)"/><rect x="416.5" y="416.5" width="31.0" height="31.0" fill="rgb(1,3,2)"/><rect x="96.5" y="448.5" width="31.0" height="31.0" fill="rgb(5,5,5)"/><rect x="128.5" y="448.5" width="31.0" height="31.0" fill="rgb(6,6,4)"/><rect x="160.5" y="448.5" width="31.0" height="31.0" fill="rgb(5,5,5)"/><rect x="192.5" y="448.5" width="31.0" height="31.0" fill="rgb(5,3,1)"/><rect x="224.5" y="448.5" width="31.0" height="31.0" fill="rgb(6,4,5)"/><rect x="256.5" y="448.5" width="31.0" height="31.0" fill="rgb(7,7,7)"/><rect x="288.5" y="448.5" width="31.0" height="31.0" fill="rgb(2,2,2)"/><rect x="320.5" y="448.5" width="31.0" height="31.0" fill="rgb(1,1,1)"/><rect x="352.5" y="448.5" width="31.0" height="31.0" fill="rgb(2,2,2)"/><rect x="384.5" y="448.5" width="31.0" height="31.0" fill="rgb(2,2,2)"/><rect x="160.5" y="480.5" width="31.0" height="31.0" fill="rgb(6,4,3)"/><rect x="192.5" y="480.5" width="31.0" height="31.0" fill="rgb(3,4,1)"/><rect x="224.5" y="480.5" width="31.0" height="31.0" fill="rgb(78,44,30)"/><rect x="256.5" y="480.5" width="31.0" height="31.0" fill="rgb(2,2,2)"/><rect x="288.5" y="480.5" width="31.0" height="31.0" fill="rgb(2,2,2)"/><rect x="320.5" y="480.5" width="31.0" height="31.0" fill="rgb(1,1,1)"/></svg>