<svg xmlns="http://www.w3.org/2000/svg" width="500" height="500" viewBox="-0.5 -0.5 500 500"><path fill="#000a18" d="M160 192h31v31h-31z"/><path fill="#001344" d="M160 160h31v31h-31z"/><path fill="#010101" d="M256 416h31v31h-31zm32-64h31v31h-31zm32-32h31v31h-31zm0 32h31v31h-31zm0 96h31v31h-31zm0 32h31v31h-31zm64-256h31v31h-31zm32-64h31v31h-31zm0 64h31v31h-31zm32-32h31v31h-31zm0 32h31v31h-31z"/><path fill="#010302" d="M416 416h31v31h-31z"/><path fill="#0a0e18" d="M96 320h31v31H96z"/><path fill="#0a40b2" d="M32 256h31v31H32z"/><path fill="#0a0806" d="M320 160h31v31h-31z"/><path fill="#64563b" d="M256 96h31v31h-31z"/><path fill="#64593b" d="M352 96h31v31h-31z"/><path fill="#665845" d="M160 0h31v31h-31z"/><path fill="#665942" d="M288 0h31v31h-31z"/><path fill="#66594a" d="M128 96h31v31h-31z"/><path fill="#665b4b" d="M96 64h31v31H96z"/><path fill="#665e4d" d="M96 32h31v31H96z"/><path fill="#675640" d="M384 32h31v31h-31z"/><path fill="#675b3e" d="M320 32h31v31h-31z"/><path fill="#675b46" d="M224 32h31v31h-31z"/><path fill="#685941" d="M352 32h31v31h-31z"/><path fill="#695b42" d="M288 96h31v31h-31z"/><path fill="#695d46" d="M320 0h31v31h-31z"/><path fill="#6a5b43" d="M320 96h31v31h-31z"/><path fill="#6a5c41" d="M320 64h31v31h-31zm32 0h31v31h-31z"/><path fill="#6a5e43" d="M288 64h31v31h-31z"/><path fill="#6c5b41" d="M288 128h31v31h-31z"/><path fill="#6d6051" d="M32 128h31v31H32z"/><path fill="#0b0a0d" d="M96 288h31v31H96z"/><path fill="#0b0811" d="M128 128h31v31h-31z"/><path fill="#0b0802" d="M256 192h31v31h-31z"/><path fill="#0b0907" d="M320 224h31v31h-31z"/><path fill="#6f604c" d="M288 32h31v31h-31z"/><path fill="#71644a" d="M32 96h31v31H32z"/><path fill="#72acf2" d="M64 192h31v31H64z"/><path fill="#0c45b8" d="M32 192h31v31H32z"/><path fill="#0c080b" d="M160 320h31v31h-31z"/><path fill="#79aff1" d="M96 224h31v31H96z"/><path fill="#0d0c0e" d="M64 64h31v31H64z"/><path fill="#0d50cb" d="M0 192h31v31H0z"/><path fill="#0e0a0e" d="M96 128h31v31H96z"/><path fill="#0e0a03" d="M384 96h31v31h-31z"/><path fill="#0e0c08" d="M160 352h31v31h-31zm320-96h31v31h-31z"/><path fill="#0e0d0c" d="M64 96h31v31H64z"/><path fill="#0e0d09" d="M480 288h31v31h-31z"/><path fill="#0e0908" d="M32 320h31v31H32z"/><path fill="#0f67e6" d="M32 160h31v31H32z"/><path fill="#0f0b08" d="M448 128h31v31h-31z"/><path fill="#1068de" d="M32 224h31v31H32z"/><path fill="#100c09" d="M64 384h31v31H64z"/><path fill="#120a06" d="M0 320h31v31H0z"/><path fill="#120f09" d="M64 416h31v31H64z"/><path fill="#130f0c" d="M192 352h31v31h-31z"/><path fill="#13110f" d="M288 256h31v31h-31z"/><path fill="#020b1c" d="M96 256h31v31H96z"/><path fill="#020202" d="M224 384h31v31h-31zm32-64h31v31h-31zm0 32h31v31h-31zm0 32h31v31h-31zm0 96h31v31h-31zm32-32h31v31h-31zm0 32h31v31h-31zm32-288h31v31h-31zm32 0h31v31h-31zm0 32h31v31h-31zm0 224h31v31h-31zm32-32h31v31h-31zm0 32h31v31h-31zm64-288h31v31h-31zm0 96h31v31h-31zm32-64h31v31h-31z"/><path fill="#147df7" d="M64 160h31v31H64z"/><path fill="#150f0a" d="M192 384h31v31h-31z"/><path fill="#150600" d="M416 320h31v31h-31z"/><path fill="#16100b" d="M96 384h31v31H96z"/><path fill="#170d07" d="M192 320h31v31h-31z"/><path fill="#17110b" d="M192 256h31v31h-31z"/><path fill="#180d0c" d="M160 288h31v31h-31z"/><path fill="#180f0f" d="M128 288h31v31h-31zm128-32h31v31h-31z"/><path fill="#181009" d="M160 384h31v31h-31z"/><path fill="#196ada" d="M64 224h31v31H64z"/><path fill="#19100f" d="M192 288h31v31h-31z"/><path fill="#1a77ef" d="M96 160h31v31H96z"/><path fill="#1a1216" d="M160 256h31v31h-31z"/><path fill="#1b140f" d="M288 288h31v31h-31z"/><path fill="#1c8bfc" d="M128 160h31v31h-31z"/><path fill="#1ca2f9" d="M0 160h31v31H0z"/><path fill="#1c120a" d="M224 256h31v31h-31z"/><path fill="#1d150c" d="M128 384h31v31h-31z"/><path fill="#030300" d="M448 320h31v31h-31z"/><path fill="#030302" d="M288 160h31v31h-31z"/><path fill="#030303" d="M160 416h31v31h-31zm32 0h31v31h-31zm96-96h31v31h-31zm32 64h31v31h-31zm0 32h31v31h-31zm32-32h31v31h-31zm0 32h31v31h-31zm32-224h31v31h-31zm0 160h31v31h-31zm0 32h31v31h-31zm32-256h31v31h-31zm0 128h31v31h-31zm0 96h31v31h-31zm0 32h31v31h-31zm32-32h31v31h-31zm0 32h31v31h-31zm32-64h31v31h-31z"/><path fill="#030401" d="M192 480h31v31h-31z"/><path fill="#030509" d="M64 288h31v31H64z"/><path fill="#030912" d="M64 128h31v31H64z"/><path fill="#1f1e22" d="M96 352h31v31H96z"/><path fill="#201b0f" d="M480 224h31v31h-31z"/><path fill="#040000" d="M96 416h31v31H96z"/><path fill="#040100" d="M224 352h31v31h-31z"/><path fill="#040200" d="M352 128h31v31h-31z"/><path fill="#040404" d="M480 160h31v31h-31z"/><path fill="#040608" d="M64 352h31v31H64z"/><path fill="#2957cb" d="M0 256h31v31H0z"/><path fill="#295fc8" d="M128 192h31v31h-31z"/><path fill="#2f1e17" d="M352 256h31v31h-31z"/><path fill="#050301" d="M192 448h31v31h-31zm32-128h31v31h-31zm96-32h31v31h-31zm32-128h31v31h-31z"/><path fill="#050303" d="M128 416h31v31h-31z"/><path fill="#050503" d="M416 192h31v31h-31z"/><path fill="#050505" d="M160 448h31v31h-31zm64-32h31v31h-31zm64 0h31v31h-31zM96 448h31v31H96z"/><path fill="#050712" d="M160 224h31v31h-31z"/><path fill="#322b1e" d="M256 160h31v31h-31z"/><path fill="#3584ed" d="M128 224h31v31h-31z"/><path fill="#362c26" d="M0 288h31v31H0z"/><path fill="#3986e3" d="M96 192h31v31H96z"/><path fill="#3a2112" d="M448 288h31v31h-31z"/><path fill="#060a0f" d="M64 320h31v31H64z"/><path fill="#060403" d="M160 480h31v31h-31zm224-352h31v31h-31zm0 128h31v31h-31z"/><path fill="#060405" d="M224 448h31v31h-31z"/><path fill="#060508" d="M288 384h31v31h-31zM32 288h31v31H32zm320 64h31v31h-31z"/><path fill="#060604" d="M128 448h31v31h-31z"/><path fill="#06080c" d="M32 352h31v31H32z"/><path fill="#40a2ed" d="M0 224h31v31H0z"/><path fill="#070504" d="M320 256h31v31h-31zm64-96h31v31h-31z"/><path fill="#070712" d="M128 256h31v31h-31z"/><path fill="#070707" d="M256 448h31v31h-31zm32-256h31v31h-31z"/><path fill="#07080e" d="M160 128h31v31h-31z"/><path fill="#473f2a" d="M416 96h31v31h-31z"/><path fill="#47422c" d="M448 96h31v31h-31z"/><path fill="#4a291d" d="M416 288h31v31h-31z"/><path fill="#4b3d29" d="M192 160h31v31h-31z"/><path fill="#4c3f2d" d="M224 224h31v31h-31z"/><path fill="#4d3f2f" d="M192 192h31v31h-31z"/><path fill="#4e2c1e" d="M224 480h31v31h-31z"/><path fill="#4f402d" d="M256 224h31v31h-31z"/><path fill="#080d1b" d="M128 320h31v31h-31z"/><path fill="#08090c" d="M224 288h31v31h-31z"/><path fill="#514432" d="M192 224h31v31h-31z"/><path fill="#5487e7" d="M64 256h31v31H64z"/><path fill="#544433" d="M192 128h31v31h-31z"/><path fill="#544831" d="M192 96h31v31h-31z"/><path fill="#552f1a" d="M384 288h31v31h-31z"/><path fill="#554630" d="M224 192h31v31h-31z"/><path fill="#583726" d="M352 320h31v31h-31z"/><path fill="#584632" d="M288 224h31v31h-31z"/><path fill="#584a36" d="M224 160h31v31h-31z"/><path fill="#090402" d="M256 288h31v31h-31z"/><path fill="#090505" d="M128 352h31v31h-31z"/><path fill="#090705" d="M32 384h31v31H32z"/><path fill="#5a4e37" d="M224 64h31v31h-31z"/><path fill="#5b4935" d="M192 64h31v31h-31z"/><path fill="#5c381d" d="M384 320h31v31h-31z"/><path fill="#5d533e" d="M256 0h31v31h-31z"/><path fill="#5e5039" d="M160 96h31v31h-31z"/><path fill="#5e523b" d="M256 128h31v31h-31z"/><path fill="#5e543e" d="M224 0h31v31h-31z"/><path fill="#5f4e38" d="M224 128h31v31h-31z"/><path fill="#5f523f" d="M192 32h31v31h-31z"/><path fill="#5f533b" d="M160 32h31v31h-31z"/><path fill="#5f5345" d="M96 96h31v31H96z"/><path fill="#5f543b" d="M416 64h31v31h-31z"/><path fill="#60533e" d="M320 128h31v31h-31z"/><path fill="#61523d" d="M256 32h31v31h-31z"/><path fill="#615441" d="M128 32h31v31h-31z"/><path fill="#61563c" d="M384 64h31v31h-31z"/><path fill="#62361f" d="M352 288h31v31h-31z"/><path fill="#625540" d="M128 64h31v31h-31z"/><path fill="#625743" d="M192 0h31v31h-31z"/><path fill="#63543e" d="M256 64h31v31h-31z"/><path fill="#63543f" d="M160 64h31v31h-31z"/><path fill="#635641" d="M224 96h31v31h-31z"/></svg>